<svg width="211" height="385" viewBox="145.25 64.25 210.8 384.5" xmlns="http://www.w3.org/2000/svg">
  <defs>
    <style>
      .teepee { fill: #EDF1F5; }
      .clock-face { fill: none; stroke: #EDF1F5; stroke-width: 1.5; opacity: 0.18; }
      .hourglass-outline { fill: none; stroke: #EDF1F5; stroke-width: 1.5; opacity: 1; }
      .clock-tick { stroke: #EDF1F5; stroke-width: 2; opacity: 0.25; }
      .hand-minute { stroke: #EDF1F5; stroke-width: 4; stroke-linecap: round; }
      .hand-second { stroke: #E8935B; stroke-width: 2.5; stroke-linecap: round; }
      .center-dot { fill: #EDF1F5; }
    </style>
  </defs>

  <!-- Thin hourglass outline behind everything -->
  <path class="hourglass-outline" d="M 155.0 65.0
                                       Q 148.8 141.5 211.0 260.0
                                       Q 146.0 374.0 152.0 448.0
                                       L 348.0 448.0
                                       Q 354.0 374.0 289.0 260.0
                                       Q 355.3 105.5 345.0 65.0
                                       Z" />

  <!-- Second, smaller hourglass nested inside the first -->
  <path class="hourglass-outline" d="M 159.0 69.0
                                       Q 152.8 141.5 250.0 260.0
                                       Q 146.0 374.0 156.0 444.0
                                       L 344.0 444.0
                                       Q 354.0 374.0 250.0 260.0
                                       Q 351.3 109.5 341.0 69.0
                                       Z" />

  <!-- BOTTOM BULB = teepee, with door notch cut as a true hole (evenodd) so it's transparent -->
  <path class="teepee" fill-rule="evenodd" d="M 170 430
                          Q 225 345 250 260
                          Q 275 345 330 430
                          Z
                          M 232 430 L 250 385 L 268 430 Z" />

  <!-- TOP BULB = only entrance triangle remains -->
  <path class="teepee" d="M 232 90 L 250 135 L 268 90 Z" />

  <!-- Simplified clock face at the waist: circle + 4 cardinal ticks only -->
  <circle class="clock-face" cx="250" cy="260" r="34" />
  <line class="clock-tick" x1="250" y1="226" x2="250" y2="232" />
  <line class="clock-tick" x1="284" y1="260" x2="278" y2="260" />
  <line class="clock-tick" x1="250" y1="294" x2="250" y2="288" />
  <line class="clock-tick" x1="216" y1="260" x2="222" y2="260" />

  <!-- Hands forming the X: minute hand (dark, longer) and second hand (accent, thinner) -->
  <line class="hand-minute" x1="235" y1="269" x2="250" y2="260" />
  <line class="hand-minute" x1="250" y1="260" x2="285" y2="224" />
  <line class="hand-second" x1="263" y1="268" x2="250" y2="260" />
  <line class="hand-second" x1="250" y1="260" x2="210" y2="217" />
  <circle cx="263" cy="268" r="2.5" fill="#E8935B" opacity="0.7" />
  <circle class="center-dot" cx="250" cy="260" r="3" />
</svg>
